<?xml version="1.0" encoding="UTF-8" standalone="no"?>
<!DOCTYPE svg PUBLIC "-//W3C//DTD SVG 1.1//EN" "http://www.w3.org/Graphics/SVG/1.1/DTD/svg11.dtd">
<svg width="100%" height="100%" viewBox="0 0 1550 1206" version="1.1" xmlns="http://www.w3.org/2000/svg" xmlns:xlink="http://www.w3.org/1999/xlink" xml:space="preserve" xmlns:serif="http://www.serif.com/" style="fill-rule:evenodd;clip-rule:evenodd;stroke-linejoin:round;stroke-miterlimit:2;">
    <g transform="matrix(1,0,0,1,-500,-1047.25)">
        <g transform="matrix(4.16667,0,0,4.16667,0,0)">
            <g transform="matrix(0.785055,0,0,0.785055,75.9976,126.123)">
                <g>
                    <path d="M504.883,239.945C504.883,232.133 503.656,225.707 501.227,220.664C501.227,217.82 503.496,211.055 508.051,200.398C508.625,199.102 509.113,198.453 509.508,198.453C510.012,198.453 510.57,199.137 511.219,200.523C512.531,203.297 515.539,210.926 520.254,223.473C525.223,236.488 528.102,244.496 528.91,247.504C529.559,249.789 529.902,251.5 529.902,252.633C529.902,256.215 526.43,254.055 519.516,246.172C518.706,245.02 518.309,245.523 518.309,247.629C518.309,248.367 520.094,273.388 523.676,322.707C527.258,372.027 529.055,399.766 529.055,405.957C529.055,424.93 526.156,441.598 520.379,456.016C519.156,458.934 518.184,461.055 517.445,462.352C516.313,464.312 515.609,464.582 515.375,463.215C515.051,461.738 515.18,458.645 515.734,453.926C516.473,447.43 516.852,439.852 516.852,431.23C516.852,423.418 514.854,391.27 510.859,334.785C506.863,278.32 504.883,246.711 504.883,239.945Z" style="fill:rgb(0,179,206);fill-rule:nonzero;"/>
                    <g transform="matrix(0.24,0,0,0.24,0,0)">
                        <path d="M1868.48,1823.31L1868.55,1823.26C1901.03,1823.26 1932.6,1810.74 1963.05,1785.61C1971.91,1778.19 1976.32,1751.04 1976.32,1704.25C1976.32,1675.73 1968.98,1561.36 1954.43,1360.89C1939.88,1160.5 1932.6,1042.37 1932.6,1006.36C1932.6,973.813 1927.51,947.038 1917.3,926.042C1917.3,914.487 1926.83,886.362 1945.8,841.583C1947.82,836.196 1949.85,833.496 1951.87,833.496C1953.91,833.496 1956.3,836.492 1959,842.642C1964.4,854.117 1977,886.067 1996.65,938.267C2016.98,992.496 2029.2,1025.72 2033.25,1037.94C2035.27,1048.15 2036.33,1055.26 2036.33,1059.31C2036.33,1074.23 2022.07,1065.4 1993.57,1032.85C1990.2,1028.11 1988.56,1030.14 1988.56,1039C1988.56,1041.02 1994.92,1130.19 2007.83,1306.51C2020.72,1482.85 2027.18,1587.99 2027.18,1621.89C2027.18,1720.22 2009.55,1797.54 1974.3,1853.79C1944.45,1901.27 1909.2,1925.03 1868.55,1925.03L1868.47,1924.98L1868.39,1925.03C1830.75,1925.03 1792.27,1908.55 1752.98,1875.68C1731.9,1857.99 1715.48,1839.01 1703.63,1818.68L1591.8,1866.02C1539.6,1888.45 1500.29,1905.62 1474.5,1917.84C1423.73,1941.54 1388.77,1960.89 1369.81,1975.81C1334.85,2002.96 1284.23,2054.78 1217.78,2131.45C1178.09,2177.2 1138.28,2200.15 1098.31,2200.15C1064.78,2200.15 1035.45,2184.99 1010.32,2154.83C983.921,2123.34 970.721,2084.8 970.721,2039.42C970.721,1976.65 996.45,1894.97 1047.98,1794.24C1053.37,1783.74 1057.65,1778.48 1060.65,1778.48C1062,1778.79 1062.68,1780.14 1062.68,1782.54C1062.68,1792.74 1051.5,1827.91 1029.15,1888.07C1006.8,1948.29 995.621,1995.83 995.621,2030.71C995.621,2057.49 1001.85,2078.86 1014.37,2094.84C1027.65,2112.09 1046.1,2120.78 1069.81,2120.78C1111.51,2120.78 1153.73,2099.56 1196.4,2057.2C1223.55,2024.93 1250.62,1992.76 1277.77,1960.51C1313.02,1920.92 1359.29,1885.43 1416.6,1854.25C1450.13,1835.94 1591.8,1774.45 1591.8,1774.45L1674.59,1739.34C1662.83,1706.79 1656.9,1673.71 1656.9,1640.12C1656.9,1589.26 1664.4,1548.39 1679.48,1517.56C1694.55,1486.67 1714.5,1471.29 1739.26,1471.29C1761.23,1471.29 1781.92,1489.58 1801.27,1526.19C1818.52,1558.74 1827.23,1588.3 1827.23,1614.7C1827.23,1681.88 1807.5,1736.95 1768.2,1780.06C1795.95,1808.87 1829.4,1823.26 1868.39,1823.26L1868.48,1823.31ZM1801.27,1658.42C1801.27,1647.23 1792.58,1630 1775.33,1606.59C1756.35,1581.46 1739.92,1568.95 1725.98,1568.95C1715.48,1568.95 1705.12,1575.39 1695,1588.22C1684.8,1601.12 1679.77,1613.35 1679.77,1624.89C1679.77,1634.72 1685.32,1651.82 1696.5,1676.27C1706.02,1697.64 1713.45,1712.05 1718.85,1719.47C1733.1,1712.71 1749.38,1703.04 1767.67,1690.51C1790.02,1675.59 1801.27,1664.86 1801.27,1658.42Z" style="fill:rgb(255,97,6);fill-rule:nonzero;"/>
                    </g>
                    <path d="M269.93,239.762C269.93,231.953 268.703,225.527 266.273,220.484C266.273,217.641 268.543,210.875 273.098,200.219C273.672,198.922 274.156,198.273 274.555,198.273C275.059,198.273 275.617,198.957 276.266,200.344C277.578,203.117 280.586,210.746 285.301,223.293C290.27,236.309 293.148,244.316 293.957,247.324C294.605,249.609 294.949,251.32 294.949,252.453C294.949,256.035 291.473,253.875 284.563,245.992C283.754,244.84 283.355,245.344 283.355,247.449C283.355,248.187 285.137,273.207 288.719,322.527C292.301,371.848 294.102,399.586 294.102,405.777C294.102,424.75 291.203,441.418 285.426,455.836C284.203,458.75 283.23,460.875 282.492,462.172C281.359,464.133 280.656,464.402 280.422,463.035C280.098,461.559 280.223,458.465 280.781,453.746C281.52,447.25 281.898,439.672 281.898,431.051C281.898,423.238 279.898,391.09 275.902,334.605C271.906,278.141 269.93,246.531 269.93,239.762Z" style="fill:rgb(255,176,0);fill-rule:nonzero;"/>
                    <path d="M253.961,378.219C253.961,393.359 250.543,404.84 243.703,412.652C232.973,425.184 217.188,437.312 196.363,449.031C170.012,463.684 145.441,471.008 122.672,471.008C92.089,471.008 71.011,456.035 59.453,426.082C57.187,420.215 56.05,412.727 56.05,403.617C56.05,397.605 56.539,391.484 57.511,385.312C58.968,376.187 61.003,368.211 63.613,361.391C64.421,359.266 65.23,358.203 66.043,358.203C66.871,358.203 67.031,359.59 66.527,362.363C65.554,366.59 64.585,370.82 63.613,375.051C61.992,382.539 61.183,388.082 61.183,391.664C61.183,404.031 65.32,415.426 73.621,425.848C84.851,439.672 101.105,446.602 122.418,446.602C141.137,446.602 160.992,442.191 181.961,433.406C198.883,426.406 214.109,417.621 227.609,407.039C239.813,397.605 245.914,390.855 245.914,386.789C245.914,386.121 243.379,380.848 238.34,370.91C232.324,359.195 227.844,347.801 224.93,336.73C223.777,332.984 222.445,330.465 220.895,329.168C219.348,327.855 218.574,326.469 218.574,325.012C218.574,323.879 219.707,317.848 221.992,306.941C222.316,304.996 222.805,304.023 223.453,304.023C224.102,304.023 224.93,304.508 225.898,305.48C228.996,308.902 235.656,315.652 245.914,325.73C247.535,327.371 248.348,328.664 248.348,329.637C248.348,330.789 247.375,331.348 245.41,331.348C243.305,331.348 240.137,330.699 235.906,329.402C236.23,330.699 239.633,337.863 246.148,350.879C251.352,361.461 253.961,370.586 253.961,378.219Z" style="fill:rgb(0,179,206);fill-rule:nonzero;"/>
                    <path d="M408.512,312.734L414.738,299.918C415.223,298.949 415.746,298.461 416.32,298.461C417.133,298.461 420.625,300.566 426.816,304.797C432.988,309.027 436.086,311.512 436.086,312.25C436.086,315.023 433.352,320.781 427.914,329.582C427.266,330.629 426.563,330.914 425.824,330.43C420.461,326.453 414.395,322.258 407.645,317.867C405.379,322.977 403.145,327.332 400.934,330.914C400.285,332.051 399.602,332.336 398.863,331.781C392.762,327.137 386.461,322.781 379.961,318.711C379.637,318.461 379.637,317.973 379.961,317.254L387.758,301.25C388.262,300.281 388.781,299.793 389.34,299.793C390.078,299.793 393.047,301.539 398.25,305.031C403.469,308.543 406.871,311.098 408.512,312.734Z" style="fill:rgb(0,179,206);fill-rule:nonzero;"/>
                    <path d="M323.98,159.5C328.535,159.5 330.82,161.734 330.82,166.215C330.82,168.574 330.211,171.059 328.984,173.648C328.176,175.359 326.105,178.203 322.758,182.199C318.043,187.652 314.875,191.469 313.254,193.664C310.555,197.246 309.023,199.047 308.609,199.047C308.52,199.047 308.484,198.957 308.484,198.797C308.484,198.383 308.898,197.176 309.707,195.141C311.488,190.66 314.426,186.105 318.492,181.461C320.852,178.871 323.242,176.258 325.691,173.648C324.793,171.383 323.336,170.246 321.301,170.246C319.844,170.246 318.043,170.77 315.938,171.832C295.273,182.324 275.348,187.582 256.14,187.582C245.574,187.582 236.016,185.297 227.465,180.742C228.691,184.719 228.238,189.527 226.117,195.141C225.305,197.336 224.746,198.473 224.406,198.562C224.172,198.562 224.047,197.211 224.047,194.531C224.047,189.488 223.273,185.168 221.723,181.586C221.488,181.102 218.879,177.195 213.93,169.871C214.738,164.828 216,162.309 217.711,162.309C217.871,162.309 219.133,163.191 221.488,164.992C224.336,167.277 227.215,169.187 230.148,170.734C238.859,175.289 248.383,177.574 258.695,177.574C269.605,177.574 280.098,176.027 290.18,172.93C296.117,171.059 303.191,168.125 311.418,164.129C317.844,161.051 322.039,159.5 323.98,159.5Z" style="fill:rgb(0,179,206);fill-rule:nonzero;"/>
                    <path d="M127.098,281.488C126.758,281.234 126.758,280.75 127.098,280.012L134.891,264.027C135.395,263.055 135.918,262.57 136.477,262.57C137.305,262.57 140.797,264.676 146.969,268.906C153.16,273.138 156.258,275.621 156.258,276.359C156.258,279.13 153.523,284.906 148.066,293.691C147.422,294.824 146.734,295.113 145.996,294.555C139.895,289.91 133.598,285.555 127.098,281.488Z" style="fill:rgb(255,176,0);fill-rule:nonzero;"/>
                    <g>
                        <g>
                            <g>
                                <path d="M204.605,321.773C204.605,319.289 204.211,317.219 203.438,315.617C203.438,314.699 204.156,312.539 205.613,309.117C205.793,308.703 205.957,308.504 206.082,308.504C206.242,308.504 206.426,308.723 206.621,309.152C207.055,310.055 208.008,312.5 209.52,316.496C211.105,320.672 212.039,323.23 212.293,324.203C212.508,324.922 212.617,325.48 212.617,325.84C212.617,326.992 211.5,326.289 209.285,323.77C209.035,323.41 208.906,323.57 208.906,324.238C208.906,324.473 209.465,332.48 210.617,348.27C211.77,364.035 212.348,372.926 212.348,374.891C212.348,380.973 211.41,386.301 209.555,390.91C209.16,391.844 208.855,392.531 208.621,392.945C208.262,393.574 208.027,393.664 207.953,393.23C207.848,392.762 207.898,391.773 208.078,390.262C208.313,388.172 208.441,385.742 208.441,382.988C208.441,380.488 207.793,370.211 206.516,352.137C205.234,334.066 204.605,323.949 204.605,321.773Z" style="fill:rgb(255,176,0);fill-rule:nonzero;"/>
                                <g transform="matrix(0.24,0,0,0.24,0,0)">
                                    <path d="M774.866,1645.64C774.757,1645.65 774.595,1645.6 774.866,1645.64L774.821,1645.67C762.596,1645.67 751.646,1642.97 741.975,1637.48C735.971,1634.03 727.425,1627.21 716.242,1617.01C703.792,1605.53 693.083,1596.7 684.229,1590.61C682.129,1589.26 681.004,1588.51 680.779,1588.51C680.404,1588.51 680.842,1590.09 682.275,1593.25C686.996,1604.18 689.404,1612.37 689.404,1617.84C689.404,1636.13 684.083,1650.02 673.504,1659.47C665.854,1666.29 648.683,1675.36 621.908,1686.69L599.943,1696.17C593.669,1698.91 588.452,1701.24 584.325,1703.19C568.05,1710.84 556.867,1716.99 550.796,1721.79C539.629,1730.42 523.421,1747.07 502.196,1771.6C489.454,1786.21 476.775,1793.57 463.95,1793.57C453.221,1793.57 443.846,1788.69 435.825,1779.02C427.346,1768.96 423.146,1756.67 423.146,1742.12C423.146,1722.02 431.333,1695.92 447.821,1663.67C449.546,1660.37 450.896,1658.64 451.871,1658.64C452.329,1658.79 452.554,1659.16 452.554,1659.91C452.554,1663.22 448.942,1674.46 441.829,1693.67C434.621,1712.94 431.104,1728.16 431.104,1739.34C431.104,1747.88 433.058,1754.72 437.092,1759.81C441.292,1765.36 447.233,1768.15 454.8,1768.15C468.146,1768.15 481.658,1761.31 495.296,1747.74C504.004,1737.47 512.696,1727.2 521.321,1716.85C532.65,1704.17 547.429,1692.84 565.804,1682.86C576.529,1677.02 595.363,1668.54 621.908,1657.38L640.68,1649.36C645.508,1647.28 648.902,1645.78 650.846,1644.84C663.446,1639 672.525,1633.74 678.221,1629.02C680.55,1626.99 681.3,1624.51 680.321,1621.75C675.292,1607.63 660.825,1590.92 636.75,1571.57C609.146,1550.11 581.704,1528.66 554.25,1507.15C553.354,1506.4 552.979,1504.3 552.979,1500.77C552.979,1493.95 554.183,1485.76 556.658,1476.24C559.279,1465.89 562.125,1459.44 565.121,1456.67C583.579,1440.09 623.179,1418.2 683.854,1390.97C736.111,1367.42 773.316,1353.98 795.372,1350.53C795.256,1340.68 793.599,1332.44 790.496,1326.01C790.496,1322.27 793.504,1313.27 799.575,1298.94C800.246,1297.22 800.929,1296.39 801.529,1296.39C802.196,1296.39 802.946,1297.36 803.858,1299.32C805.583,1303 809.554,1313.18 815.854,1329.92C822.379,1347.23 826.271,1357.9 827.554,1361.78C828.221,1365.09 828.596,1367.33 828.596,1368.62C828.596,1372.26 825.963,1371.5 820.695,1366.4C820.455,1372.47 818.561,1379.22 815.017,1386.64C816.038,1400.84 817.514,1421.21 819.45,1447.74C823.567,1504.13 825.667,1537.81 825.667,1548.62C825.667,1580.11 819.971,1604.87 808.725,1622.87C799.204,1638.02 787.875,1645.67 774.904,1645.67L774.866,1645.64C774.781,1645.65 774.619,1645.39 774.866,1645.64ZM791.852,1378.29L792.221,1378.29C793.773,1378.29 795.203,1378.33 796.512,1378.42C796.839,1384.14 797.236,1390.65 797.705,1397.97C792.343,1404.77 784.819,1413.66 775.129,1424.64C773.096,1426.89 770.021,1431.84 766.05,1439.42C761.621,1447.67 759.083,1453.52 758.4,1456.88C757.196,1462.97 756.9,1465.97 757.421,1465.97C757.942,1465.97 759.292,1463.72 761.475,1459.15C764.696,1452.39 770.996,1443.68 780.142,1432.96C786.067,1426.29 791.846,1419.76 797.625,1413.23C797.962,1412.81 798.295,1412.39 798.623,1411.98C799.63,1427.04 800.871,1444.76 802.346,1465.14C807,1529.26 809.408,1565.87 809.408,1575.02C809.408,1589.94 807.975,1598.63 805.125,1601.04C795.379,1609.07 785.254,1613.12 774.904,1613.12L774.861,1613.14L774.821,1613.12C762.746,1613.12 750,1608.77 736.425,1600.07C731.333,1596.84 720.15,1588.07 702.896,1573.89C675.829,1551.61 644.483,1530.39 608.921,1510.22C594.158,1501.89 579.15,1494.09 563.85,1486.82C561.979,1485.92 561.75,1484.95 563.167,1483.74C584.325,1466.49 624.008,1444.52 682.275,1417.82C739.508,1391.63 776.056,1378.49 791.852,1378.29Z" style="fill:rgb(0,179,206);"/>
                                </g>
                                <g transform="matrix(0.24,0,0,0.24,0,0)">
                                    <path d="M457.479,1594.54C455.25,1589.67 454.117,1583.76 454.117,1576.82C454.117,1556.04 459.292,1537.29 469.808,1520.72C480.225,1504.07 491.846,1495.82 504.525,1495.82C516.521,1495.82 522.608,1500.68 522.608,1510.6C522.608,1518.91 521.096,1526.56 518.179,1533.38C517.725,1534.36 516.683,1534.21 514.958,1532.86C510.45,1529.41 505.958,1527.69 501.3,1527.69C494.4,1527.69 487.583,1530.62 480.6,1536.46C470.621,1544.94 465.675,1557.31 465.675,1573.58C465.675,1577.85 467.695,1582.63 471.744,1588.01L472.429,1587.7C485.254,1583.27 496.208,1581.09 505.275,1581.09C514.5,1581.09 521.842,1584.91 527.179,1592.71C532.567,1600.44 535.271,1610.71 535.271,1623.39C535.271,1633.89 532.942,1642.6 528.371,1649.41C523.875,1656.23 517.804,1659.68 510.367,1659.68C500.033,1659.68 490.054,1654.67 480.454,1644.7C473.242,1637.19 467.921,1629.17 464.325,1620.62C446.629,1627.67 426.45,1640.19 403.646,1658.19C386.929,1671.84 370.279,1685.56 353.692,1699.22C341.325,1708.51 330.075,1713.23 319.871,1713.23C309.146,1713.23 299.771,1708.37 291.746,1698.7C283.267,1688.64 279.067,1676.33 279.067,1661.78C279.067,1641.68 287.254,1615.59 303.742,1583.33C305.467,1579.96 306.817,1578.32 307.796,1578.32C308.25,1578.39 308.479,1578.84 308.479,1579.59C308.479,1582.81 304.879,1594.06 297.75,1613.35C290.542,1632.62 287.025,1647.83 287.025,1659.02C287.025,1667.42 288.979,1674.32 293.017,1679.49C297.379,1685.04 303.221,1687.81 310.725,1687.81C323.029,1687.81 334.567,1683.77 345.375,1675.73C358.721,1664.26 372.067,1652.72 385.429,1641.24C409.504,1620.83 433.429,1605.32 457.358,1594.6L457.479,1594.54ZM511.8,1627.13C516,1627.13 518.179,1625.95 518.179,1623.7C518.179,1620.31 515.171,1617.38 509.179,1614.91C504.754,1613.04 497.542,1612.97 487.583,1614.76C492.904,1623.01 500.992,1627.13 511.8,1627.13Z" style="fill:rgb(255,97,6);fill-rule:nonzero;"/>
                                </g>
                                <path d="M142.309,386.66L144.305,382.574C144.449,382.25 144.629,382.109 144.809,382.109C145.063,382.109 146.195,382.773 148.156,384.125C150.137,385.492 151.129,386.285 151.129,386.52C151.129,387.398 150.266,389.254 148.52,392.062C148.301,392.402 148.086,392.492 147.852,392.332C146.141,391.055 144.199,389.723 142.039,388.301C141.301,389.957 140.598,391.34 139.895,392.477C139.68,392.855 139.465,392.945 139.23,392.762C137.27,391.27 135.254,389.883 133.184,388.57C133.074,388.496 133.074,388.336 133.184,388.102L135.664,382.988C135.828,382.684 135.988,382.523 136.188,382.523C136.422,382.523 137.359,383.098 139.031,384.215C140.688,385.328 141.785,386.141 142.309,386.66Z" style="fill:rgb(255,176,0);fill-rule:nonzero;"/>
                                <path d="M176.129,346.988C176.887,347.402 177.246,347.906 177.246,348.484C177.246,348.863 177.066,349.238 176.707,349.617C175.66,350.645 175.016,351.113 174.742,350.969C174.781,350.609 174.422,350.031 173.699,349.223C173.195,348.934 171.863,348.863 169.668,348.988C167.363,349.113 165.492,349.457 164.051,349.996C163.586,350.176 163.352,350.391 163.352,350.625C163.352,351.039 164.125,351.687 165.652,352.57C166.824,353.254 168.336,353.918 170.191,354.586C172.027,355.25 173.16,355.703 173.574,355.937C175.859,357.27 176.922,358.781 176.742,360.508C176.633,361.551 175.969,362.578 174.742,363.621C173.664,364.559 172.906,364.973 172.492,364.883C165.852,363.281 161.191,361.715 158.508,360.148C156.277,358.852 155.16,356.996 155.16,354.605C155.16,354.172 155.195,353.758 155.305,353.363C155.953,354.551 157.48,355.844 159.875,357.23C160.883,357.824 163.477,358.832 167.598,360.273C171.27,361.551 173.555,362.289 174.438,362.504C174.742,361.281 173.594,359.895 170.965,358.367C169.145,357.719 166.645,356.656 163.457,355.199C161.406,353.992 160.379,352.93 160.379,351.992C160.379,351.238 161.082,350.426 162.449,349.527C165.727,347.422 169.145,346.379 172.727,346.379C174.258,346.379 175.391,346.574 176.129,346.988Z" style="fill:rgb(255,176,0);fill-rule:nonzero;"/>
                                <path d="M138.617,336.461C143.262,333.652 149.383,330.574 157.016,327.207C163.727,324.238 167.453,322.762 168.176,322.762C168.266,322.781 168.301,322.852 168.301,322.941C168.301,323.23 168.102,323.715 167.723,324.398C167.348,325.066 167.039,325.445 166.805,325.535C164.594,326.324 160.324,328.25 154.008,331.312C146.953,334.715 141.391,337.629 137.305,340.023C137.539,338.98 137.969,337.793 138.617,336.461Z" style="fill:rgb(255,176,0);fill-rule:nonzero;"/>
                                <path d="M134.785,418.234C142.02,415.605 149.707,412.816 157.824,409.844C158.238,409.703 158.488,409.648 158.563,409.703C158.672,409.773 158.633,409.988 158.488,410.352C158.023,411.5 157.645,412.187 157.355,412.418C150.535,414.867 142.578,417.98 133.469,421.762C133.738,420.684 134.191,419.512 134.785,418.234Z" style="fill:rgb(255,176,0);fill-rule:nonzero;"/>
                                <path d="M89.476,360.758C90.253,360.758 91.351,361.301 92.773,362.414C94.195,363.512 94.968,364.484 95.093,365.277C95.113,365.492 94.933,366.035 94.554,366.898C94.156,367.781 93.886,368.246 93.726,368.285C92.449,368.66 91.171,369.004 89.89,369.344C88.308,369.867 87.21,370.48 86.578,371.184C88.343,376.547 89.242,381.855 89.242,387.074C89.242,388.625 89.062,390.191 88.722,391.773C88.597,392.313 88.488,392.602 88.414,392.637C88.253,392.637 88.183,391.719 88.183,389.902C88.183,386.879 87.73,383.242 86.851,378.977C85.968,374.727 85.535,372.281 85.535,371.648C85.535,369.543 86.128,367.996 87.316,367.004C87.894,366.539 88.972,366.07 90.558,365.602C89.91,364.953 89.296,364.629 88.687,364.629C88.398,364.629 88.003,364.953 87.48,365.637C86.957,366.32 86.652,366.664 86.578,366.664C86.453,366.664 86.418,366.375 86.472,365.801C86.832,362.434 87.839,360.758 89.476,360.758Z" style="fill:rgb(255,176,0);fill-rule:nonzero;"/>
                                <path d="M116.785,342.453C116.785,343.137 115.922,344.668 114.211,347.078C112.285,349.762 110.449,351.723 108.703,352.965C107.586,353.758 103.879,354.98 97.578,356.637C96.46,356.926 95.902,357.035 95.902,356.961C95.976,356.855 96.371,356.531 97.074,355.973C97.867,355.359 100.117,354.082 103.789,352.156C107.297,350.285 109.352,349.078 109.945,348.555C110.051,348.465 110.105,348.359 110.105,348.25C110.105,347.422 106.992,347.008 100.727,347.008C100.711,347.008 99.523,347.043 97.144,347.152C95.992,347.207 95.437,347.133 95.437,346.918C95.437,346.773 95.578,346.434 95.851,345.945L98.082,342.184C98.73,341.105 99.918,340.402 101.629,340.113C102.258,340.004 103.699,339.969 105.965,339.969C113.184,339.969 116.785,340.797 116.785,342.453Z" style="fill:rgb(255,176,0);fill-rule:nonzero;"/>
                                <path d="M77.164,356.926C77.886,356.926 78.589,356.602 79.234,355.973C79.992,355.25 80.371,354.332 80.371,353.234C80.371,352.047 79.687,351.437 78.335,351.437C77.742,351.437 77.218,351.617 76.769,351.992C76.769,351.293 77.273,350.195 78.265,348.699C79.144,347.332 80.027,346.234 80.91,345.422C81.125,345.191 81.179,344.992 81.109,344.812C81.054,344.648 80.91,344.633 80.675,344.777C79.523,345.477 78.3,346.793 77.003,348.719C75.527,350.879 74.789,352.73 74.789,354.297C74.789,356.043 75.582,356.926 77.164,356.926Z" style="fill:rgb(255,176,0);fill-rule:nonzero;"/>
                                <path d="M218.504,362.828C219.223,362.828 219.926,362.504 220.57,361.875C221.328,361.156 221.707,360.238 221.707,359.141C221.707,357.953 221.023,357.34 219.672,357.34C219.078,357.34 218.555,357.52 218.105,357.898C218.105,357.195 218.609,356.098 219.602,354.605C220.48,353.234 221.363,352.137 222.246,351.328C222.461,351.094 222.516,350.895 222.445,350.715C222.391,350.555 222.246,350.535 222.012,350.68C220.859,351.383 219.637,352.695 218.34,354.621C216.863,356.781 216.125,358.637 216.125,360.203C216.125,361.949 216.918,362.828 218.504,362.828Z" style="fill:rgb(255,176,0);fill-rule:nonzero;"/>
                                <path d="M180.988,377.301C181.711,377.301 182.41,376.977 183.059,376.348C183.816,375.629 184.195,374.711 184.195,373.613C184.195,372.422 183.512,371.812 182.16,371.812C181.566,371.812 181.043,371.992 180.594,372.371C180.594,371.668 181.098,370.57 182.09,369.074C182.969,367.707 183.852,366.609 184.734,365.801C184.949,365.566 185.004,365.367 184.934,365.187C184.879,365.027 184.734,365.008 184.5,365.152C183.348,365.855 182.125,367.168 180.828,369.094C179.352,371.254 178.613,373.109 178.613,374.672C178.613,376.418 179.406,377.301 180.988,377.301Z" style="fill:rgb(255,176,0);fill-rule:nonzero;"/>
                                <path d="M169.648,405.887C171.828,405.887 173.789,407.184 175.535,409.773C177.266,412.367 178.488,415.77 179.191,419.945C179.262,420.375 179.316,420.629 179.316,420.699C179.387,420.824 179.441,420.824 179.477,420.699C179.531,420.629 179.621,420.375 179.785,419.945C180.125,417.441 180.988,413.715 182.359,408.746C183.836,405.184 185.453,403.418 187.219,403.418C188.117,403.418 189.02,404.012 189.918,405.219C190.691,406.281 191.09,407.145 191.09,407.812C191.09,408.316 190.945,408.98 190.676,409.793C190.313,410.891 189.918,411.449 189.449,411.449C189.254,411.449 188.82,411.016 188.152,410.187C187.488,409.34 186.805,408.926 186.102,408.926C184.535,408.926 183.098,412.617 181.766,419.996C181.188,423.203 180.539,425.469 179.84,426.801C179.336,427.703 178.902,428.152 178.543,428.152C178.234,428.152 178.074,427.738 178.074,426.91C178.074,425.633 177.336,423.113 175.859,419.387C174.367,415.641 173.32,413.789 172.691,413.789C172.262,413.789 171.988,413.914 171.863,414.203C171.758,414.473 171.395,414.617 170.82,414.617C170.152,414.617 169.289,414.113 168.211,413.141C167.129,412.168 166.609,411.395 166.609,410.801C166.609,410.531 167.059,409.648 167.941,408.137C168.84,406.625 169.414,405.887 169.648,405.887Z" style="fill:rgb(255,176,0);fill-rule:nonzero;"/>
                                <path d="M228.727,388.336C228.816,388.137 228.926,387.992 229.016,387.887C229.121,387.832 229.156,387.852 229.156,387.941C229.195,388.031 229.195,388.191 229.156,388.426C228.293,393.215 226.855,395.609 224.875,395.609C222.75,395.609 221.707,393.844 221.707,390.332C221.707,385.996 222.949,381.461 225.449,376.707C226.078,375.539 226.441,374.926 226.586,374.906C226.602,374.906 226.621,374.926 226.621,374.945C226.621,375.176 226.441,375.844 226.078,376.961C224.461,381.91 223.648,385.367 223.648,387.344C223.648,390.047 224.371,391.414 225.848,391.414C226.691,391.414 227.645,390.387 228.727,388.336Z" style="fill:rgb(255,176,0);fill-rule:nonzero;"/>
                                <path d="M209.16,403.547C209.16,405.203 208.477,407.09 207.109,409.215C205.703,411.43 203.902,413.32 201.691,414.887C200.809,415.496 200.285,415.82 200.125,415.82C200.09,415.82 200.09,415.805 200.09,415.77C200.09,415.641 200.449,415.156 201.203,414.344C204.84,410.367 206.676,407.723 206.676,406.371C206.676,405.113 206.082,404.48 204.91,404.48C204.266,404.48 203.672,404.66 203.148,405.023C202.77,405.273 202.52,405.418 202.43,405.453C202.355,405.383 202.285,405.344 202.176,405.309C202.211,405.184 202.285,404.84 202.375,404.285C202.969,401.547 204.316,400.18 206.477,400.18C208.262,400.18 209.16,401.297 209.16,403.547Z" style="fill:rgb(255,176,0);fill-rule:nonzero;"/>
                                <path d="M154.926,425.758C154.926,427.414 154.242,429.305 152.875,431.426C151.469,433.641 149.672,435.531 147.457,437.098C146.574,437.711 146.051,438.035 145.891,438.035C145.855,438.035 145.855,438.016 145.855,437.98C145.855,437.855 146.215,437.367 146.969,436.559C150.605,432.578 152.441,429.934 152.441,428.582C152.441,427.324 151.848,426.695 150.68,426.695C150.031,426.695 149.438,426.875 148.914,427.234C148.535,427.484 148.285,427.629 148.195,427.664C148.121,427.594 148.051,427.559 147.941,427.523C147.977,427.395 148.051,427.055 148.141,426.496C148.734,423.758 150.086,422.391 152.242,422.391C154.027,422.391 154.926,423.508 154.926,425.758Z" style="fill:rgb(255,176,0);fill-rule:nonzero;"/>
                                <path d="M86.777,427.359C87.695,427.359 88.543,426.965 89.371,426.172C90.304,425.273 90.773,424.137 90.773,422.77C90.773,421.258 89.929,420.52 88.234,420.52C87.496,420.52 86.851,420.734 86.293,421.203C86.293,420.32 86.902,418.953 88.144,417.102C89.242,415.371 90.359,414.004 91.457,412.996C91.726,412.691 91.8,412.437 91.71,412.203C91.636,412.004 91.457,412.004 91.171,412.168C89.73,413.031 88.199,414.687 86.578,417.102C84.726,419.801 83.808,422.121 83.808,424.082C83.808,426.262 84.796,427.359 86.777,427.359Z" style="fill:rgb(255,176,0);fill-rule:nonzero;"/>
                                <path d="M125.855,442.535C126.773,442.535 127.621,442.137 128.449,441.344C129.382,440.445 129.852,439.313 129.852,437.945C129.852,436.434 129.007,435.695 127.313,435.695C126.574,435.695 125.93,435.91 125.371,436.379C125.371,435.496 125.98,434.129 127.223,432.273C128.32,430.547 129.438,429.176 130.535,428.168C130.804,427.863 130.879,427.613 130.789,427.379C130.715,427.18 130.535,427.18 130.246,427.34C128.809,428.207 127.277,429.863 125.656,432.273C123.805,434.973 122.887,437.297 122.887,439.258C122.887,441.437 123.875,442.535 125.855,442.535Z" style="fill:rgb(255,176,0);fill-rule:nonzero;"/>
                            </g>
                        </g>
                    </g>
                    <path d="M379.098,366.305C379.098,368.41 376.398,373.215 371.035,380.703C365.023,389.09 359.281,395.23 353.824,399.137C350.336,401.566 338.742,405.398 319.051,410.602C315.559,411.5 313.813,411.824 313.813,411.59C314.047,411.25 315.27,410.242 317.465,408.531C319.984,406.586 326.988,402.59 338.453,396.578C349.434,390.711 355.859,386.969 357.73,385.348C358.055,385.023 358.219,384.699 358.219,384.375C358.219,381.766 348.461,380.469 328.934,380.469C328.859,380.469 325.117,380.633 317.719,380.957C314.137,381.117 312.355,380.867 312.355,380.219C312.355,379.73 312.785,378.707 313.688,377.156L320.633,365.441C322.688,362.02 326.375,359.859 331.738,358.977C333.703,358.652 338.219,358.492 345.293,358.492C367.828,358.492 379.098,361.082 379.098,366.305Z" style="fill:rgb(255,176,0);fill-rule:nonzero;"/>
                    <path d="M166.211,207.867C166.211,209.973 163.512,214.781 158.148,222.27C152.137,230.656 146.395,236.793 140.941,240.699C137.449,243.129 125.855,246.965 106.164,252.164C102.672,253.066 100.926,253.391 100.926,253.156C101.16,252.812 102.383,251.805 104.578,250.094C107.102,248.152 114.102,244.156 125.566,238.145C136.547,232.277 142.973,228.531 144.848,226.91C145.172,226.586 145.332,226.262 145.332,225.941C145.332,223.328 135.574,222.035 116.047,222.035C115.973,222.035 112.23,222.195 104.832,222.52C101.25,222.684 99.468,222.43 99.468,221.781C99.468,221.297 99.898,220.27 100.801,218.723L107.746,207.004C109.801,203.582 113.488,201.422 118.855,200.543C120.816,200.219 125.336,200.055 132.406,200.055C154.945,200.055 166.211,202.648 166.211,207.867Z" style="fill:rgb(255,97,6);fill-rule:nonzero;"/>
                    <path d="M413.387,218.309C414.125,215.949 414.289,213.59 413.875,211.215C413.387,208.625 412.219,207.328 410.348,207.328C409.445,207.328 408.223,207.742 406.676,208.605C405.125,209.453 404.371,210.297 404.371,211.109C404.371,212.98 407.375,215.375 413.387,218.309ZM408.742,228.801C401.203,224.895 397.422,220.793 397.422,216.473C397.422,212.402 399.328,208.172 403.145,203.781C406.98,199.391 410.867,197.195 414.863,197.195C418.68,197.195 420.605,200.164 420.605,206.105C420.605,210.406 419.707,215.246 417.906,220.629C421.559,222.734 423.973,224.609 425.105,226.227C424.945,228.512 423.234,231.969 419.977,236.613C418.844,234.977 416.52,233.121 413.027,230.996C400.176,249.23 373.934,264.656 334.313,277.277C331.957,277.996 330.625,278.375 330.301,278.375C330.137,278.375 329.977,278.285 329.813,278.121C329.813,277.547 330.949,276.574 333.215,275.187C346.48,267.953 359.746,260.75 372.996,253.586C389.754,244.461 401.672,236.219 408.742,228.801Z" style="fill:rgb(255,176,0);fill-rule:nonzero;"/>
                    <path d="M357.984,207.707C357.984,211.863 356.273,216.578 352.855,221.871C349.344,227.414 344.844,232.133 339.301,236.039C337.105,237.586 335.809,238.359 335.395,238.359C335.32,238.359 335.285,238.305 335.285,238.234C335.285,237.91 336.223,236.723 338.074,234.687C347.203,224.77 351.758,218.129 351.758,214.797C351.758,211.629 350.281,210.047 347.363,210.047C345.727,210.047 344.27,210.477 342.973,211.379C341.98,212.027 341.387,212.402 341.137,212.477C340.973,212.312 340.777,212.207 340.523,212.117C340.613,211.793 340.777,210.926 341.012,209.543C342.484,202.719 345.887,199.301 351.27,199.301C355.734,199.301 357.984,202.109 357.984,207.707Z" style="fill:rgb(255,97,6);fill-rule:nonzero;"/>
                    <path d="M65.05,311.187C67.339,311.187 69.48,310.199 71.515,308.254C73.871,305.969 75.058,303.125 75.058,299.703C75.058,295.961 72.937,294.086 68.707,294.086C66.835,294.086 65.214,294.645 63.828,295.797C63.828,293.602 65.375,290.184 68.472,285.539C71.242,281.219 73.996,277.797 76.769,275.277C77.418,274.539 77.617,273.891 77.382,273.316C77.218,272.828 76.769,272.794 76.031,273.207C72.449,275.402 68.632,279.508 64.566,285.539C59.921,292.289 57.617,298.121 57.617,302.996C57.617,308.453 60.085,311.187 65.05,311.187Z" style="fill:rgb(255,97,6);fill-rule:nonzero;"/>
                    <path d="M201.836,497.668C202.375,497.164 202.805,496.875 203.164,496.805C203.418,496.695 203.527,496.805 203.508,497.109C203.488,497.414 203.293,497.867 202.934,498.461C200.125,503.32 196.723,507.281 192.727,510.34C188.711,513.418 185.363,514.391 182.664,513.238C179.656,512.066 178.074,509.582 177.875,505.805C177.68,502.004 178.813,497.488 181.242,492.27C184.285,485.824 190.891,477.273 201.023,466.617C209.879,457.238 216.828,450.852 221.867,447.465C224.102,445.973 225.449,445.289 225.938,445.379C225.883,445.773 224.965,446.816 223.184,448.508C210.078,460.66 200.574,470.937 194.672,479.363C192.293,482.711 190.477,485.859 189.215,488.812C187.469,492.953 186.91,496.371 187.559,499.09C188.012,501.305 188.91,502.527 190.277,502.797C193.121,503.355 196.973,501.645 201.836,497.668Z" style="fill:rgb(255,97,6);fill-rule:nonzero;"/>
                    <path d="M233.82,240.359C233.82,245.668 231.625,251.699 227.25,258.484C222.77,265.559 216.988,271.605 209.914,276.609C207.109,278.591 205.434,279.578 204.91,279.578C204.805,279.578 204.77,279.527 204.77,279.419C204.77,279.005 205.957,277.492 208.352,274.883C220.016,262.172 225.848,253.676 225.848,249.41C225.848,245.344 223.957,243.328 220.211,243.328C218.141,243.328 216.27,243.887 214.598,245.039C213.355,245.883 212.563,246.352 212.258,246.441C212.039,246.242 211.789,246.082 211.48,245.973C211.57,245.559 211.789,244.461 212.094,242.699C213.984,233.949 218.34,229.574 225.215,229.574C230.941,229.574 233.82,233.156 233.82,240.359Z" style="fill:rgb(0,179,206);fill-rule:nonzero;"/>
                    <path d="M327.816,330.898C330.102,330.898 332.242,329.906 334.277,327.965C336.637,325.676 337.824,322.832 337.824,319.414C337.824,315.668 335.699,313.797 331.469,313.797C329.598,313.797 327.977,314.355 326.594,315.508C326.594,313.312 328.141,309.891 331.234,305.246C334.008,300.926 336.762,297.508 339.535,294.988C340.184,294.25 340.379,293.602 340.145,293.027C339.984,292.539 339.535,292.504 338.797,292.918C335.215,295.113 331.398,299.219 327.328,305.246C322.688,311.996 320.383,317.828 320.383,322.707C320.383,328.16 322.848,330.898 327.816,330.898Z" style="fill:rgb(0,179,206);fill-rule:nonzero;"/>
                    <path d="M408.617,492.754C401.453,493.094 392.578,492.43 382.016,490.738C373.734,489.406 365.832,489.531 358.309,491.133C343.945,494.195 331.543,503.75 321.121,519.809C320.328,521.031 319.23,521.426 317.863,520.977L308.789,518.117C307.98,517.863 307.855,517.199 308.359,516.137C316.457,500.582 330.68,490.629 351.055,486.309C360.828,484.223 371.645,484.168 383.508,486.113C395.352,488.055 403.379,488.594 407.555,487.715C416.016,485.914 419.742,482.727 418.77,478.137C418.211,475.492 414.359,473.168 407.23,471.172C406.547,471.008 406.027,470.793 405.664,470.559C405.395,470.289 405.414,470.129 405.719,470.055C405.988,469.895 406.512,469.785 407.25,469.73C422.801,469.301 431.242,472.199 432.559,478.406C433.906,484.707 428.473,489.172 416.25,491.762C413.801,492.285 411.266,492.609 408.617,492.754Z" style="fill:rgb(0,179,206);fill-rule:nonzero;"/>
                </g>
            </g>
        </g>
    </g>
</svg>
